arm26_ForwardRun_states
version=1
nRows=34
nColumns=17
inDegrees=yes

# SIMM Motion File Header:
name arm26_ForwardRun_states
datacolumns 17
datarows 34
otherdata 1
range 0.00000000 0.04487699
endheader
time	r_shoulder/r_shoulder_elev/r_shoulder_elev	r_shoulder/r_shoulder_elev/r_shoulder_elev_u	r_elbow/r_elbow_flex/r_elbow_flex	r_elbow/r_elbow_flex/r_elbow_flex_u	TRIlong/activation	TRIlong/fiber_length	TRIlat/activation	TRIlat/fiber_length	TRImed/activation	TRImed/fiber_length	BIClong/activation	BIClong/fiber_length	BICshort/activation	BICshort/fiber_length	BRA/activation	BRA/fiber_length
      0.00000000	      0.00000000	      0.00000000	     90.00000000	      0.00000000	      0.05000000	      0.10000000	      0.05000000	      0.10000000	      0.05000000	      0.10000000	      0.05000000	      0.10000000	      0.05000000	      0.10000000	      0.05000000	      0.10000000
      0.00001470	     -0.00001068	     -0.02378813	     89.99998590	     -0.03143490	      0.04999324	      0.12180292	      0.04999324	      0.10043783	      0.04999324	      0.09999519	      0.04999324	      0.09999511	      0.04999324	      0.09999442	      0.04999324	      0.09998391
      0.00002939	     -0.00003798	     -0.04002583	     89.99994977	     -0.05305261	      0.04998648	      0.13580368	      0.04998648	      0.10070914	      0.04998648	      0.09999038	      0.04998648	      0.09999022	      0.04998648	      0.09998884	      0.04998648	      0.09996785
      0.00005223	     -0.00010168	     -0.05580338	     89.99986505	     -0.07448243	      0.04997598	      0.14942869	      0.04997598	      0.10095429	      0.04997598	      0.09998291	      0.04997598	      0.09998263	      0.04997598	      0.09998016	      0.04997598	      0.09994294
      0.00008232	     -0.00020818	     -0.06635978	     89.99972195	     -0.08976980	      0.04996215	      0.15879941	      0.04996215	      0.10113826	      0.04996215	      0.09997307	      0.04996215	      0.09997262	      0.04996215	      0.09996874	      0.04996215	      0.09991020
      0.00011241	     -0.00032722	     -0.07109705	     89.99955964	     -0.09772248	      0.04994833	      0.16305533	      0.04994833	      0.10125034	      0.04994833	      0.09996322	      0.04994833	      0.09996261	      0.04994833	      0.09995731	      0.04994833	      0.09987756
      0.00014250	     -0.00045188	     -0.07324509	     89.99938684	     -0.10238683	      0.04993451	      0.16491213	      0.04993451	      0.10132449	      0.04993451	      0.09995338	      0.04993451	      0.09995260	      0.04993451	      0.09994588	      0.04993451	      0.09984501
      0.00018108	     -0.00061533	     -0.07447311	     89.99915585	     -0.10638836	      0.04991680	      0.16582910	      0.04991680	      0.10138743	      0.04991680	      0.09994076	      0.04991680	      0.09993977	      0.04991680	      0.09993124	      0.04991680	      0.09980342
      0.00021966	     -0.00078069	     -0.07510277	     89.99891709	     -0.10957549	      0.04989910	      0.16615666	      0.04989910	      0.10142851	      0.04989910	      0.09992814	      0.04989910	      0.09992694	      0.04989910	      0.09991659	      0.04989910	      0.09976199
      0.00029163	     -0.00109210	     -0.07590032	     89.99845408	     -0.11493016	      0.04986610	      0.16637779	      0.04986610	      0.10147270	      0.04986610	      0.09990460	      0.04986610	      0.09990301	      0.04986610	      0.09988926	      0.04986610	      0.09968512
      0.00042431	     -0.00167370	     -0.07708874	     89.99754473	     -0.12425456	      0.04980534	      0.16647212	      0.04980534	      0.10150545	      0.04980534	      0.09986121	      0.04980534	      0.09985890	      0.04980534	      0.09983889	      0.04980534	      0.09954478
      0.00055699	     -0.00226401	     -0.07820813	     89.99656537	     -0.13338146	      0.04974469	      0.16649208	      0.04974469	      0.10152201	      0.04974469	      0.09981783	      0.04974469	      0.09981479	      0.04974469	      0.09978853	      0.04974469	      0.09940620
      0.00089468	     -0.00380426	     -0.08099269	     89.99376271	     -0.15625238	      0.04959077	      0.16651888	      0.04959077	      0.10154892	      0.04959077	      0.09970744	      0.04959077	      0.09970255	      0.04959077	      0.09966039	      0.04959077	      0.09906119
      0.00153547	     -0.00687282	     -0.08614168	     89.98724206	     -0.19880625	      0.04930052	      0.16654701	      0.04930052	      0.10158076	      0.04930052	      0.09949809	      0.04930052	      0.09948971	      0.04930052	      0.09941738	      0.04930052	      0.09843487
      0.00265147	     -0.01266087	     -0.09485387	     89.97220325	     -0.27130240	      0.04880059	      0.16657437	      0.04880059	      0.10161580	      0.04880059	      0.09913387	      0.04880059	      0.09911941	      0.04880059	      0.09899459	      0.04880059	      0.09742292
      0.00371781	     -0.01870479	     -0.10296016	     89.95354543	     -0.33927760	      0.04832945	      0.16658975	      0.04832945	      0.10163873	      0.04832945	      0.09878630	      0.04832945	      0.09876603	      0.04832945	      0.09859112	      0.04832945	      0.09653666
      0.00425822	     -0.02195554	     -0.10702420	     89.94251314	     -0.37324212	      0.04809309	      0.16659522	      0.04809309	      0.10164803	      0.04809309	      0.09861031	      0.04809309	      0.09858711	      0.04809309	      0.09839693	      0.04809309	      0.09611382
      0.00479862	     -0.02533322	     -0.11116660	     89.93044040	     -0.40645548	      0.04785833	      0.16659953	      0.04785833	      0.10165619	      0.04785833	      0.09843444	      0.04785833	      0.09840830	      0.04785833	      0.09824398	      0.04785833	      0.09570701
      0.00586666	     -0.03239181	     -0.11957367	     89.90360921	     -0.47002699	      0.04739902	      0.16660531	      0.04739902	      0.10166962	      0.04739902	      0.09808717	      0.04739902	      0.09805523	      0.04739902	      0.09802121	      0.04739902	      0.09494595
      0.00736204	     -0.04316552	     -0.13210306	     89.85972058	     -0.55310307	      0.04676619	      0.16660868	      0.04676619	      0.10168382	      0.04676619	      0.09760164	      0.04676619	      0.09765293	      0.04676619	      0.09781274	      0.04676619	      0.09396503
      0.00814243	     -0.04922688	     -0.13905178	     89.83408260	     -0.59340838	      0.04644061	      0.16660861	      0.04644061	      0.10168956	      0.04644061	      0.09735702	      0.04644061	      0.09749686	      0.04644061	      0.09773391	      0.04644061	      0.09348768
      0.00892281	     -0.05560135	     -0.14608546	     89.80667279	     -0.63246043	      0.04611818	      0.16660660	      0.04611818	      0.10169434	      0.04611818	      0.09719350	      0.04611818	      0.09736583	      0.04611818	      0.09766964	      0.04611818	      0.09303157
      0.01127176	     -0.07670812	     -0.16771392	     89.71397740	     -0.74332755	      0.04516639	      0.16659050	      0.04516639	      0.10170392	      0.04516639	      0.09693909	      0.04516639	      0.09707596	      0.04516639	      0.09753930	      0.04516639	      0.09177181
      0.01362071	     -0.10079498	     -0.19043740	     89.60707101	     -0.84355897	      0.04424194	      0.16656269	      0.04424194	      0.10170766	      0.04424194	      0.09681075	      0.04424194	      0.09688954	      0.04424194	      0.09747377	      0.04424194	      0.09065656
      0.01700041	     -0.14102078	     -0.22551635	     89.43123396	     -0.96884568	      0.04295800	      0.16650770	      0.04295800	      0.10170222	      0.04295800	      0.09670239	      0.04295800	      0.09673317	      0.04295800	      0.09745144	      0.04295800	      0.08925686
      0.02074552	     -0.19389570	     -0.26793916	     89.21073444	     -1.08187569	      0.04159609	      0.16643066	      0.04159609	      0.10167908	      0.04159609	      0.09662272	      0.04159609	      0.09666018	      0.04159609	      0.09748610	      0.04159609	      0.08793331
      0.02362974	     -0.24104834	     -0.30304252	     89.02600241	     -1.15155198	      0.04058886	      0.16636151	      0.04058886	      0.10165159	      0.04058886	      0.09657189	      0.04058886	      0.09665289	      0.04058886	      0.09756822	      0.04058886	      0.08704725
      0.02651397	     -0.29414206	     -0.33973909	     88.83083010	     -1.20871104	      0.03961627	      0.16628468	      0.03961627	      0.10161754	      0.03961627	      0.09652387	      0.03961627	      0.09667146	      0.03961627	      0.09771172	      0.03961627	      0.08625917
      0.02939819	     -0.35338919	     -0.37741682	     88.62704612	     -1.25625108	      0.03867698	      0.16620071	      0.03867698	      0.10157822	      0.03867698	      0.09647600	      0.03867698	      0.09672603	      0.03867698	      0.09789697	      0.03867698	      0.08555203
      0.03228242	     -0.41890371	     -0.41548657	     88.41600005	     -1.29714325	      0.03776970	      0.16611003	      0.03776970	      0.10153466	      0.03776970	      0.09642705	      0.03776970	      0.09683920	      0.03776970	      0.09809987	      0.03776970	      0.08486243
      0.03516664	     -0.49069397	     -0.45324520	     88.19849608	     -1.33505622	      0.03689319	      0.16601296	      0.03689319	      0.10148760	      0.03689319	      0.09637643	      0.03689319	      0.09702105	      0.03689319	      0.09831119	      0.03689319	      0.08417448
      0.03805087	     -0.56865311	     -0.49007103	     87.97473974	     -1.37319338	      0.03604629	      0.16590971	      0.03604629	      0.10143756	      0.03604629	      0.09632390	      0.03604629	      0.09724625	      0.03604629	      0.09852880	      0.03604629	      0.08348813
      0.04093509	     -0.65259902	     -0.52567747	     87.74455464	     -1.41296514	      0.03522788	      0.16580041	      0.03522788	      0.10138484	      0.03522788	      0.09626929	      0.03522788	      0.09748879	      0.03522788	      0.09875240	      0.03522788	      0.08280333
      0.04487699	     -0.77662868	     -0.57222221	     87.41900040	     -1.47055208	      0.03415349	      0.16564138	      0.03415349	      0.10130866	      0.03415349	      0.09619109	      0.03415349	      0.09783403	      0.03415349	      0.09906791	      0.03415349	      0.08186980
